<?xml version="1.0" encoding="iso-8859-1"?>
<!-- Generator: Adobe Illustrator 19.0.0, SVG Export Plug-In . SVG Version: 6.00 Build 0)  -->
<svg version="1.1" id="Layer_1" xmlns="http://www.w3.org/2000/svg" xmlns:xlink="http://www.w3.org/1999/xlink" x="0px" y="0px"
	 viewBox="0 0 510.374 510.374" style="enable-background:new 0 0 510.374 510.374;" xml:space="preserve">
<g>
	<g>
		<path d="M509.95,198.707c-0.879-6.229-3.908-12.578-8.303-17.417c-17.101-18.756-42.308-19.618-64.623-18.961
			c-5.214,0.154-11.153,0.683-17.476,1.246c-22.562,2.005-50.637,4.506-63.292-10.325c-0.282-0.444-0.572-0.862-0.888-1.28
			l-0.094,0.068c-1.994-2.657-7.243-9.337-15.02-17.78c-0.298-0.383-0.629-0.743-0.995-1.074
			c-25.384-27.287-76.032-71.454-128.949-60.266C147.54,86.178,76.389,131.959,92.355,274.483L16.664,398.438
			c-1.434,2.338-3.098,4.77-4.813,7.27c-4.395,6.434-8.943,13.09-11.392,20.233c-1.519,4.454,0.853,9.301,5.308,10.837
			c2.048,0.691,4.19,0.589,6.05-0.205c1.613-0.427,5.402-1.195,8.414-1.826c2.347-0.486,4.301-0.905,4.872-1.058
			c5.265-1.382,10.624-2.509,15.966-3.618l3.661-0.768c14.669-3.115,26.914-5.265,38.562-6.793
			c20.173-2.645,50.116-5.427,77.141,1.126c6.69,1.621,13.346,3.584,20.028,5.547c16.811,4.949,34.142,10.052,52.514,10.052
			c2.304,0,4.625-0.077,6.955-0.256c32.222-2.347,60.314-21.385,81.186-37.709c25.728-20.13,46.729-42.283,62.413-65.852
			c8.004-12.023,13.943-25.105,19.686-37.734c7.287-16.034,14.174-31.181,24.841-44.092c9.506-11.503,22.903-21.402,40.96-30.242
			c8.781-4.309,16.094-5.274,26.206-6.605l2.833-0.375c2.048-0.29,6.835-0.939,9.907-4.992
			C511.145,207.163,510.428,202.077,509.95,198.707z M323.146,141.047c-8.167,15.534-17.784,30.365-28.708,44.269
			c-3.86-5.192-8.803-8.384-14.897-8.384c-17.587,0-25.6,26.547-25.6,51.2c0,2.954,0.144,5.918,0.402,8.935
			c-3-0.258-5.963-0.4-8.934-0.4c-24.661,0-51.2,8.004-51.2,25.6c0,1.441,0.195,2.81,0.535,4.123
			c-31.485,15.786-63.489,25.672-95.461,29.508l0.952-1.558c52.438-32.579,146.44-95.723,210.177-165.628
			C315.087,132.955,319.359,137.14,323.146,141.047z M288.073,296.399c0,20.036-5.743,31.727-8.533,33.92
			c-2.79-2.193-8.533-13.884-8.533-33.92c0-0.357,0.016-0.716,0.02-1.073c2.723,0.702,5.577,1.075,8.516,1.075
			c2.938,0,5.789-0.373,8.511-1.074C288.057,295.684,288.073,296.042,288.073,296.399z M213.29,263.798
			c-0.497-0.532-1.052-0.993-1.653-1.374c-0.045-0.051-0.109-0.107-0.148-0.157c2.202-2.79,13.892-8.533,33.92-8.533
			c0.358,0,0.716,0.015,1.074,0.02c-0.701,2.722-1.074,5.575-1.074,8.513s0.373,5.791,1.074,8.514
			c-0.358,0.004-0.716,0.02-1.074,0.02C228.576,270.801,217.66,266.749,213.29,263.798z M289.481,248.42
			c0.453,0.461,0.956,0.873,1.508,1.224c0.398,0.361,0.778,0.74,1.14,1.137c0.377,0.605,0.827,1.155,1.333,1.645
			c1.974,2.784,3.147,6.175,3.147,9.841c0,3.68-1.182,7.082-3.17,9.873c-0.493,0.479-0.933,1.016-1.303,1.606
			c-0.359,0.393-0.734,0.768-1.128,1.127c-0.567,0.358-1.084,0.782-1.547,1.257c-2.799,2.008-6.218,3.204-9.919,3.204
			c-3.698,0-7.114-1.194-9.912-3.199c-0.465-0.477-0.984-0.902-1.554-1.262c-0.405-0.369-0.791-0.755-1.159-1.161
			c-0.358-0.565-0.779-1.081-1.251-1.544c-2-2.795-3.191-6.208-3.191-9.901c0-3.667,1.173-7.059,3.149-9.844
			c0.498-0.484,0.942-1.027,1.314-1.624c0.366-0.402,0.749-0.785,1.151-1.15c0.557-0.353,1.065-0.769,1.521-1.235
			c2.801-2.014,6.225-3.214,9.931-3.214C283.252,245.2,286.678,246.403,289.481,248.42z M312.601,253.754
			c0.358-0.004,0.717-0.02,1.074-0.02c20.028,0,31.718,5.743,33.92,8.533c-2.202,2.79-13.892,8.533-33.92,8.533
			c-0.358,0-0.717-0.015-1.074-0.02c0.701-2.722,1.074-5.575,1.074-8.514S313.302,256.476,312.601,253.754z M279.542,228.134
			c-2.939,0-5.792,0.373-8.514,1.075c-0.004-0.358-0.02-0.718-0.02-1.076c0-20.028,5.743-31.727,8.533-33.911
			c1.242,0.973,3.068,3.842,4.714,8.482c0.137,0.664,0.349,1.314,0.643,1.934c1.763,5.69,3.176,13.566,3.176,23.495
			c0,0.358-0.016,0.718-0.02,1.076C285.332,228.507,282.48,228.134,279.542,228.134z M213.835,89.616
			c29.809-6.268,59.968,9.56,83.543,28.068c-55.712,60.968-135.372,116.93-188.467,150.987
			C98.521,166.759,133.797,106.518,213.835,89.616z M461.507,208.017c-20.284,9.941-35.524,21.291-46.609,34.705
			c-12.109,14.652-19.789,31.556-27.221,47.898c-5.717,12.578-11.119,24.456-18.364,35.345c-14.66,22.05-34.415,42.863-58.709,61.85
			c-18.97,14.848-44.288,32.128-71.91,34.15c-17.911,1.314-35.149-3.772-53.41-9.156c-6.946-2.039-13.875-4.07-20.83-5.76
			c-13.841-3.354-28.177-4.514-41.719-4.514c-15.599,0-30.14,1.544-41.66,3.055c-12.1,1.587-24.772,3.814-39.876,7.014l-3.618,0.768
			c-4.045,0.836-8.09,1.69-12.092,2.637c0.154-0.222,0.307-0.452,0.452-0.666c1.877-2.748,3.712-5.444,5.291-8.013l56.931-93.222
			c39.689-2.811,79.423-14.407,118.248-34.492c10.02,5.598,24.815,8.252,38.999,8.252c2.971,0,5.934-0.142,8.933-0.4
			c-0.258,3.015-0.402,5.978-0.402,8.932c0,24.661,8.013,51.2,25.6,51.2c17.587,0,25.6-26.539,25.6-51.2
			c0-2.954-0.141-5.917-0.397-8.932c3,0.258,5.962,0.4,8.933,0.4c24.661,0,51.2-8.004,51.2-25.6c0-17.596-26.539-25.6-51.2-25.6
			c-2.971,0-5.933,0.142-8.933,0.4c0.258-3.017,0.399-5.981,0.399-8.935c0-8.58-0.973-17.386-2.98-25.225
			c12.61-15.123,23.722-31.378,33.162-48.49c4.15,4.862,6.528,8.005,6.709,8.254c0.469,0.717,0.964,1.425,1.553,2.116
			c18.091,21.069,51.021,18.142,77.474,15.778c5.965-0.521,11.563-1.033,16.469-1.169c18.5-0.606,39.279-0.017,51.499,13.397
			c1.783,1.946,3.166,4.557,3.78,7.049C482.046,201.267,472.737,202.521,461.507,208.017z"/>
	</g>
</g>
<g>
</g>
<g>
</g>
<g>
</g>
<g>
</g>
<g>
</g>
<g>
</g>
<g>
</g>
<g>
</g>
<g>
</g>
<g>
</g>
<g>
</g>
<g>
</g>
<g>
</g>
<g>
</g>
<g>
</g>
</svg>
