<?xml version="1.0" encoding="iso-8859-1"?>
<!-- Generator: Adobe Illustrator 19.0.0, SVG Export Plug-In . SVG Version: 6.00 Build 0)  -->
<svg version="1.1" id="Layer_1" xmlns="http://www.w3.org/2000/svg" xmlns:xlink="http://www.w3.org/1999/xlink" x="0px" y="0px"
	 viewBox="0 0 512.027 512.027" style="enable-background:new 0 0 512.027 512.027;" xml:space="preserve">
<g>
	<g>
		<path d="M511.885,228.493c-21.197-120.568-129.98-211.047-255.13-211.404c-0.247-0.001-0.493-0.01-0.74-0.01
			c-0.244,0-0.487,0.009-0.732,0.01C130.128,17.441,21.34,107.922,0.143,228.493c-1.495,8.504,9.14,13.595,14.826,7.097
			c6.377-7.287,29.664-13.709,53.312-13.709c0.852,0,1.7,0.01,2.545,0.027c0.375,0.032,0.749,0.047,1.116,0.03
			c13.557,0.376,26.037,2.818,35.215,6.751c8.338,3.573,12.323,7.612,12.323,10.259c0,11.039,16.062,11.366,17.02,0.986
			c0.015,0.006,0.035,0,0.079-0.043c0.925-0.904,2.663-2.022,5.142-3.194c5.703-2.696,14.414-5.275,25.458-7.484
			c21.288-4.257,49.663-6.858,80.302-7.268v238.869c0,18.853,15.281,34.133,34.133,34.133c18.853,0,34.133-15.281,34.133-34.133
			c0-4.713-3.82-8.533-8.533-8.533s-8.533,3.82-8.533,8.533c0,9.427-7.64,17.067-17.067,17.067c-9.427,0-17.067-7.64-17.067-17.067
			V221.945c30.639,0.41,59.014,3.01,80.302,7.268c11.044,2.209,19.755,4.788,25.458,7.484c2.479,1.172,4.217,2.29,5.142,3.194
			c0.044,0.043,0.064,0.049,0.079,0.043c0.464,5.03,4.474,7.547,8.486,7.547c0,0,0,0,0,0l0,0c4.267,0,8.533-2.844,8.533-8.533
			c0-2.647,3.985-6.686,12.323-10.259c9.178-3.933,21.659-6.375,35.215-6.751c0.368,0.017,0.742,0.002,1.118-0.03
			c0.844-0.016,1.691-0.027,2.543-0.027c23.648,0,46.935,6.422,53.312,13.709C502.745,242.088,513.38,236.997,511.885,228.493z
			 M298.578,206.132c-13.306-0.872-27.585-1.317-42.565-1.317s-29.259,0.445-42.564,1.317
			c1.803-96.389,22.937-171.984,42.564-171.984S296.775,109.743,298.578,206.132z M139.072,64.097
			c-37.244,33.661-64.445,83.112-74.754,140.774c-15.815,0.4-31.224,3.17-43.225,7.727C38.012,148.626,81.83,95.332,139.072,64.097z
			 M81.564,205.401c12.54-66.547,48.945-120.658,96.676-149.216c-32.078,36.022-53.918,93.783-58.047,159.883
			C110.366,210.473,96.824,206.764,81.564,205.401z M136.522,239.466c0.008-0.173,0.025-0.34,0.025-0.518
			C136.547,239.151,136.536,239.323,136.522,239.466z M137.043,220.448c4.624-87.563,41.711-158.713,89.461-179.871
			c-17.924,31.958-29.012,93.631-30.153,166.965C171.137,210.095,150.547,214.424,137.043,220.448z M315.676,207.542
			c-1.141-73.335-12.228-135.008-30.152-166.965c47.75,21.158,84.836,92.309,89.461,179.871
			C361.48,214.424,340.89,210.095,315.676,207.542z M375.505,239.466c-0.013-0.143-0.025-0.315-0.025-0.518
			C375.48,239.126,375.497,239.293,375.505,239.466z M391.834,216.067c-4.129-66.101-25.97-123.863-58.049-159.885
			c47.733,28.558,84.14,82.67,96.68,149.218C415.204,206.763,401.661,210.473,391.834,216.067z M447.711,204.871
			c-10.309-57.661-37.508-107.11-74.751-140.771c57.24,31.236,101.056,84.528,117.974,148.498
			C478.933,208.041,463.526,205.271,447.711,204.871z"/>
	</g>
</g>
<g>
</g>
<g>
</g>
<g>
</g>
<g>
</g>
<g>
</g>
<g>
</g>
<g>
</g>
<g>
</g>
<g>
</g>
<g>
</g>
<g>
</g>
<g>
</g>
<g>
</g>
<g>
</g>
<g>
</g>
</svg>
