<svg height="512" viewBox="0 0 38 56" width="512" xmlns="http://www.w3.org/2000/svg"><path id="Shape" d="m35 2h-7v-2h7zm-15 2h2v6c0 .5522847-.4477153 1-1 1h-1zm0-2v-2h6v2zm-2 0h-6v-2h6zm-8-2v2h-7v-2zm-9.72 56c3.27-13.06 2.72-9.58 2.72-41.09 2.88460406-.4875855 4.99703532-2.9844793 5-5.91v-1c0-.55228475-.44771525-1-1-1s-1 .44771525-1 1v1c-.00590719 1.819157-1.23859706 3.4052179-3 3.86v-8.86h7v1c0 .55228475.4477153 1 1 1s1-.44771525 1-1v-1h6v12h-4c-.5522847 0-1 .4477153-1 1s.4477153 1 1 1h1.55c-.3560049.6067073-.545717 1.2965692-.55 2 0 25.74-.51 23.07 2.72 36zm20 0c3.22-12.88 2.72-10.3 2.72-35.83-.0006948-.7628632-.2043252-1.5118088-.59-2.17h1.59c.5522847 0 1-.4477153 1-1s-.4477153-1-1-1h-4v-3h1c1.6568542 0 3-1.3431458 3-3v-6h2v1c0 .55228475.4477153 1 1 1s1-.44771525 1-1v-1h7v8.86c-1.7614029-.4547821-2.9940928-2.040843-3-3.86v-1c0-.55228475-.4477153-1-1-1s-1 .44771525-1 1v1c.0029647 2.9255207 2.1153959 5.4224145 5 5.91 0 31.22-.6 27.8 2.72 41.09z"/></svg>