<svg height="512" viewBox="0 0 56 56" width="512" xmlns="http://www.w3.org/2000/svg"><path id="Shape" d="m48.58 5.62c2.4789428 3.76066418 4.4651569 7.823833 5.91 12.09-2.8345862 1.4854014-6.0285903 2.147066-9.22 1.91 1.06-4.08 2.49-9.85 3.31-14zm-21.58 4.38c-5.4432256.2016423-10.146757-3.76993994-10.86-9.17.7-.23 1.41-.45 2.1-.62.64 2.36 2.86 7.79 9.76 7.79s9.12-5.43 9.76-7.79c.69.17 1.4.39 2.1.62-.713243 5.40006006-5.4167744 9.3716423-10.86 9.17zm-6.76-10h15.52c-.8343626 3.5885429-4.0769797 6.09572108-7.76 6-3.6842996.09963591-6.9291042-2.40923367-7.76-6zm-9.51 19.62c-3.19186529.2441186-6.38779748-.4179454-9.22-1.91 1.44718099-4.265204 3.43325316-8.32808256 5.91-12.09.82 4.15 2.25 9.92 3.31 14zm-10.55 2.13c.22-.74.44-1.44.67-2.13 3.20409894 1.6370038 6.80715797 2.3305666 10.39 2 .21.8.39 1.48.52 2-3.96001937.741675-8.05471788.0804413-11.58-1.87zm27.82 34.25c-7.75 0-11.49-1-15-2.76l1-28.9c0-.54-3.59-13.1-4.89-20.56 1-.48 2.9-1.41 5.12-2.26 1.0292051 6.19971294 6.4886261 10.6801149 12.77 10.48h2c6.2828836.2045584 11.7448586-4.27793945 12.77-10.48 2.22.85 4.16 1.78 5.12 2.26-1.19 6.79-5.1 21.22-4.89 20.27-.05.21-.1-1.81.95 29.19-3.46 1.76-7.2 2.76-14.95 2.76zm16.24-32.43c.13-.51.31-1.19.52-2 3.582842.3305666 7.1859011-.3629962 10.39-2 .23.69.45 1.39.67 2.13-3.5205052 1.9642246-7.6201763 2.6262613-11.58 1.87z"/></svg>